<?xml version="1.0" encoding="utf-8"?><!DOCTYPE svg PUBLIC "-//W3C//DTD SVG 1.1//EN" "http://www.w3.org/Graphics/SVG/1.1/DTD/svg11.dtd"><svg version="1.1" baseProfile="full" xmlns="http://www.w3.org/2000/svg" xmlns:xlink="http://www.w3.org/1999/xlink" xmlns:ev="http://www.w3.org/2001/xml-events"   height="26px"   width="26px" ><path fill="rgb( 255, 255, 255 )" d="M13,25.01 C6.37899999999991,25.01 0.99000000000001,19.6220000000001 0.99000000000001,13 C0.99000000000001,6.37799999999993 6.37899999999991,0.99000000000001 13,0.99000000000001 C19.623,0.99000000000001 25.01,6.37799999999993 25.01,13 C25.01,19.6220000000001 19.623,25.01 13,25.01 ZM13,3.11699999999996 C7.54999999999995,3.11699999999996 3.11699999999996,7.54999999999995 3.11699999999996,13 C3.11699999999996,18.4490000000001 7.54999999999995,22.883 13,22.883 C18.4490000000001,22.883 22.883,18.4490000000001 22.883,13 C22.883,7.54999999999995 18.4490000000001,3.11699999999996 13,3.11699999999996 ZM13.125,17.8699999999999 C12.9169999999999,18.077 12.645,18.181 12.3720000000001,18.181 C12.0999999999999,18.181 11.828,18.077 11.6199999999999,17.8699999999999 C11.2049999999999,17.4549999999999 11.2049999999999,16.7809999999999 11.6199999999999,16.365 C11.6199999999999,16.365 13.921,14.0640000000001 13.921,14.0640000000001 C13.921,14.0640000000001 7.99099999999999,14.0640000000001 7.99099999999999,14.0640000000001 C7.40300000000002,14.0640000000001 6.92699999999991,13.588 6.92699999999991,13 C6.92699999999991,12.412 7.40300000000002,11.9359999999999 7.99099999999999,11.9359999999999 C7.99099999999999,11.9359999999999 13.921,11.9359999999999 13.921,11.9359999999999 C13.921,11.9359999999999 11.6199999999999,9.63400000000001 11.6199999999999,9.63400000000001 C11.2049999999999,9.21900000000005 11.2049999999999,8.54500000000007 11.6199999999999,8.13000000000011 C12.0360000000001,7.71499999999992 12.7090000000001,7.71499999999992 13.125,8.13000000000011 C13.125,8.13000000000011 17.2380000000001,12.248 17.2380000000001,12.248 C17.654,12.663 17.654,13.336 17.2380000000001,13.752 C17.2380000000001,13.752 13.125,17.8699999999999 13.125,17.8699999999999 Z "/></svg>