<?xml version="1.0" encoding="utf-8"?><!DOCTYPE svg PUBLIC "-//W3C//DTD SVG 1.1//EN" "http://www.w3.org/Graphics/SVG/1.1/DTD/svg11.dtd"><svg version="1.1" baseProfile="full" xmlns="http://www.w3.org/2000/svg" xmlns:xlink="http://www.w3.org/1999/xlink" xmlns:ev="http://www.w3.org/2001/xml-events"   height="40px"   width="39px" ><path fill="rgb( 255, 255, 255 )" d="M36.75,40 C36.75,40 2.25,40 2.25,40 C1.009,40 0,39.003 0,37.778 C0,37.778 0,8.88900000000001 0,8.88900000000001 C0,8.22300000000001 0.304,7.631 0.77500000000001,7.22399999999999 C0.8,7.12799999999999 0.843,7.035 0.908,6.952 C0.908,6.952 5.23699999999999,1.45500000000001 5.23699999999999,1.45500000000001 C5.889,0.626 7.185,0 8.25,0 C8.25,0 30.75,0 30.75,0 C31.815,0 33.11,0.626 33.763,1.45599999999999 C33.763,1.45599999999999 38.092,6.952 38.092,6.952 C38.157,7.035 38.2,7.12799999999999 38.225,7.22399999999999 C38.696,7.631 39,8.22300000000001 39,8.88900000000001 C39,8.88900000000001 39,37.778 39,37.778 C39,39.003 37.991,40 36.75,40 ZM15.75,1.48099999999999 C15.75,1.48099999999999 8.25,1.48099999999999 8.25,1.48099999999999 C7.657,1.48099999999999 6.785,1.90199999999999 6.422,2.36500000000001 C6.422,2.36500000000001 3.03400000000001,6.666 3.03400000000001,6.666 C3.03400000000001,6.666 15.75,6.666 15.75,6.666 C15.75,6.666 15.75,1.48099999999999 15.75,1.48099999999999 ZM21.75,1.48099999999999 C21.75,1.48099999999999 17.25,1.48099999999999 17.25,1.48099999999999 C17.25,1.48099999999999 17.25,14.815 17.25,14.815 C17.25,15.223 17.586,15.555 18,15.555 C18,15.555 21,15.555 21,15.555 C21.414,15.555 21.75,15.223 21.75,14.815 C21.75,14.815 21.75,1.48099999999999 21.75,1.48099999999999 ZM32.579,2.36500000000001 C32.215,1.90199999999999 31.343,1.48099999999999 30.75,1.48099999999999 C30.75,1.48099999999999 23.25,1.48099999999999 23.25,1.48099999999999 C23.25,1.48099999999999 23.25,6.666 23.25,6.666 C23.25,6.666 35.966,6.666 35.966,6.666 C35.966,6.666 32.579,2.36500000000001 32.579,2.36500000000001 ZM37.5,8.88900000000001 C37.5,8.47999999999999 37.164,8.148 36.75,8.148 C36.75,8.148 23.25,8.148 23.25,8.148 C23.25,8.148 23.25,14.815 23.25,14.815 C23.25,16.04 22.241,17.037 21,17.037 C21,17.037 18,17.037 18,17.037 C16.759,17.037 15.75,16.04 15.75,14.815 C15.75,14.815 15.75,8.148 15.75,8.148 C15.75,8.148 2.25,8.148 2.25,8.148 C1.836,8.148 1.5,8.47999999999999 1.5,8.88900000000001 C1.5,8.88900000000001 1.5,37.778 1.5,37.778 C1.5,38.186 1.836,38.518 2.25,38.518 C2.25,38.518 36.75,38.518 36.75,38.518 C37.164,38.518 37.5,38.186 37.5,37.778 C37.5,37.778 37.5,8.88900000000001 37.5,8.88900000000001 ZM33,26.667 C32.808,26.667 32.616,26.594 32.47,26.449 C32.47,26.449 30.75,24.751 30.75,24.751 C30.75,24.751 30.75,31.111 30.75,31.111 C30.75,31.52 30.414,31.852 30,31.852 C29.585,31.852 29.25,31.52 29.25,31.111 C29.25,31.111 29.25,24.751 29.25,24.751 C29.25,24.751 27.53,26.449 27.53,26.449 C27.237,26.739 26.763,26.739 26.47,26.449 C26.177,26.16 26.177,25.691 26.47,25.402 C26.47,25.402 29.47,22.439 29.47,22.439 C29.763,22.15 30.237,22.15 30.53,22.439 C30.53,22.439 33.53,25.402 33.53,25.402 C33.823,25.691 33.823,26.16 33.53,26.449 C33.384,26.594 33.192,26.667 33,26.667 ZM24.75,26.667 C24.558,26.667 24.366,26.594 24.22,26.449 C24.22,26.449 22.5,24.751 22.5,24.751 C22.5,24.751 22.5,31.111 22.5,31.111 C22.5,31.52 22.164,31.852 21.75,31.852 C21.335,31.852 21,31.52 21,31.111 C21,31.111 21,24.751 21,24.751 C21,24.751 19.28,26.449 19.28,26.449 C18.987,26.739 18.512,26.739 18.22,26.449 C17.927,26.16 17.927,25.691 18.22,25.402 C18.22,25.402 21.22,22.439 21.22,22.439 C21.513,22.15 21.987,22.15 22.28,22.439 C22.28,22.439 25.28,25.402 25.28,25.402 C25.573,25.691 25.573,26.16 25.28,26.449 C25.134,26.594 24.942,26.667 24.75,26.667 ZM18.75,34.074 C18.75,34.074 33,34.074 33,34.074 C33.414,34.074 33.75,34.405 33.75,34.815 C33.75,35.224 33.414,35.555 33,35.555 C33,35.555 18.75,35.555 18.75,35.555 C18.335,35.555 18,35.224 18,34.815 C18,34.405 18.335,34.074 18.75,34.074 Z "/></svg>