<?xml version="1.0" encoding="utf-8"?>
<!DOCTYPE svg PUBLIC "-//W3C//DTD SVG 1.1//EN" "http://www.w3.org/Graphics/SVG/1.1/DTD/svg11.dtd">
<svg version="1.1" baseProfile="full"
 xmlns="http://www.w3.org/2000/svg"
 xmlns:xlink="http://www.w3.org/1999/xlink"
 xmlns:ev="http://www.w3.org/2001/xml-events" 
  height="100px" 
  width="100px" 
>
<path fill="rgb( 255, 255, 255 )"
 d="M50,100 C22.4300000000001,100 0,77.57 0,50 C0,22.43 22.4300000000001,0 50,0 C77.5699999999999,0 100,22.43 100,50 C100,77.57 77.5699999999999,100 50,100 ZM50,1.96100000000001 C23.511,1.96100000000001 1.96100000000001,23.511 1.96100000000001,50 C1.96100000000001,76.489 23.511,98.039 50,98.039 C76.489,98.039 98.039,76.489 98.039,50 C98.039,23.511 76.489,1.96100000000001 50,1.96100000000001 ZM43.8309999999999,72.357 C43.655,72.6 43.377,72.733 43.0930000000001,72.733 C42.9570000000001,72.733 42.8219999999999,72.704 42.6949999999999,72.642 C42.297,72.45 42.0940000000001,71.998 42.2139999999999,71.574 C42.2139999999999,71.574 46.9259999999999,54.771 46.9259999999999,54.771 C46.9259999999999,54.771 38.2159999999999,54.771 38.2159999999999,54.771 C37.8720000000001,54.771 37.558,54.578 37.402,54.271 C37.2449999999999,53.966 37.2750000000001,53.597 37.4770000000001,53.321 C37.4770000000001,53.321 56.1679999999999,27.642 56.1679999999999,27.642 C56.431,27.283 56.912,27.168 57.3050000000001,27.355 C57.703,27.548 57.9059999999999,28 57.7860000000001,28.424 C57.7860000000001,28.424 53.0740000000001,45.227 53.0740000000001,45.227 C53.0740000000001,45.227 61.7840000000001,45.227 61.7840000000001,45.227 C62.1279999999999,45.227 62.442,45.42 62.597,45.727 C62.7539999999999,46.032 62.7239999999999,46.401 62.5219999999999,46.678 C62.5219999999999,46.678 43.8309999999999,72.357 43.8309999999999,72.357 ZM51.8699999999999,47.054 C51.5830000000001,47.054 51.3150000000001,46.92 51.1410000000001,46.692 C50.9680000000001,46.466 50.914,46.169 50.99,45.894 C50.99,45.894 54.654,32.823 54.654,32.823 C54.654,32.823 40.01,52.944 40.01,52.944 C40.01,52.944 48.1300000000001,52.944 48.1300000000001,52.944 C48.4159999999999,52.944 48.6849999999999,53.078 48.8579999999999,53.306 C49.0309999999999,53.533 49.086,53.829 49.009,54.104 C49.009,54.104 45.346,67.176 45.346,67.176 C45.346,67.176 59.989,47.054 59.989,47.054 C59.989,47.054 51.8699999999999,47.054 51.8699999999999,47.054 Z "/>
</svg>
